<?xml version="1.0" encoding="utf-8"?>
<!-- Generator: Adobe Illustrator 16.0.0, SVG Export Plug-In . SVG Version: 6.00 Build 0)  -->
<!DOCTYPE svg PUBLIC "-//W3C//DTD SVG 1.1//EN" "http://www.w3.org/Graphics/SVG/1.1/DTD/svg11.dtd">
<svg version="1.1" id="Layer_1" xmlns="http://www.w3.org/2000/svg" xmlns:xlink="http://www.w3.org/1999/xlink" x="0px" y="0px"
	 width="43px" height="39px"  viewBox="0 0 120 120" enable-background="new 0 0 120 120" xml:space="preserve">
<g opacity="0.6">
	<path fill="#FFFFFF" d="M26.52,10.199h-5.917V0.246h22.908v22.909h-9.954v-5.651C18.892,26.605,9.955,42.488,9.955,60.001
		c0,27.593,22.448,50.044,50.045,50.044V120C26.918,120,0.002,93.084,0.002,60.001C0.002,39.724,9.994,21.265,26.52,10.199
		L26.52,10.199z M26.52,10.199"/>
	<path fill="#FFFFFF" d="M90.429,99.752c12.28-9.364,19.616-23.896,19.616-39.75c0-27.597-22.448-50.048-50.045-50.048V0
		c33.086,0,59.998,26.916,59.998,60.001c0,18.741-8.547,35.944-22.898,47.177h6.283v9.954H80.475V94.228h9.954V99.752z
		 M90.429,99.752"/>
</g>
<g>
	<path fill="#FFFFFF" d="M40.57,77.223l27.653-34.762H41.002v-7.902h37.994v8.189L51.203,77.365h28.226v8.047H40.57V77.223z"/>
</g>
<rect x="48" y="89.996" fill="#FFFFFF" width="24" height="3.308"/>
</svg>
